{"asset":{"version":"2.0","generator":"Blockbench 4.7.4 glTF exporter"},"scenes":[{"nodes":[3],"name":"blockbench_export"}],"scene":0,"nodes":[{"translation":[-0.4791666666666666,1.020833333333339,-0.4791666666666666],"name":"cuboid","mesh":0},{"translation":[-5.5511151231257815e-18,-0.5625,0],"name":"pyramid","mesh":1},{"rotation":[0,0.22273970166386867,0,-0.974877954055117],"translation":[-4.9960036108132046e-17,0.5249999999999999,0],"name":"Core","children":[1]},{"children":[0,2]}],"bufferViews":[{"buffer":0,"byteOffset":0,"byteLength":864,"target":34962,"byteStride":12},{"buffer":0,"byteOffset":864,"byteLength":864,"target":34962,"byteStride":12},{"buffer":0,"byteOffset":1728,"byteLength":576,"target":34962,"byteStride":8},{"buffer":0,"byteOffset":2304,"byteLength":216,"target":34963},{"buffer":0,"byteOffset":2520,"byteLength":288,"target":34962,"byteStride":12},{"buffer":0,"byteOffset":2808,"byteLength":288,"target":34962,"byteStride":12},{"buffer":0,"byteOffset":3096,"byteLength":192,"target":34962,"byteStride":8},{"buffer":0,"byteOffset":3288,"byteLength":48,"target":34963},{"buffer":0,"byteOffset":3336,"byteLength":20},{"buffer":0,"byteOffset":3356,"byteLength":80}],"buffers":[{"byteLength":3436,"uri":"data:application/octet-stream;base64,"}],"accessors":[{"bufferView":0,"componentType":5126,"count":72,"max":[1.9791666269302368,1.9791666269302368,1.9791666269302368],"min":[-1.0208333730697632,-1.0208333730697632,-1.0208333730697632],"type":"VEC3"},{"bufferView":1,"componentType":5126,"count":72,"max":[1,1,1],"min":[-1,-1,-1],"type":"VEC3"},{"bufferView":2,"componentType":5126,"count":72,"max":[0.58203125,0.58203125],"min":[0,0],"type":"VEC2"},{"bufferView":3,"componentType":5123,"count":108,"max":[71],"min":[0],"type":"SCALAR"},{"bufferView":4,"componentType":5126,"count":24,"max":[0.25,1.0625,0.25],"min":[-0.25,0.3125,-0.25],"type":"VEC3"},{"bufferView":5,"componentType":5126,"count":24,"max":[0.8320503234863281,0.5547001957893372,0.8320503234863281],"min":[-0.8320503234863281,-0.5547001957893372,-0.8320503234863281],"type":"VEC3"},{"bufferView":6,"componentType":5126,"count":24,"max":[0.8124343156814575,0.7889440059661865],"min":[0.0000656800766591914,0],"type":"VEC2"},{"bufferView":7,"componentType":5123,"count":24,"max":[23],"min":[0],"type":"SCALAR"},{"bufferView":8,"componentType":5126,"count":5,"max":[6],"min":[0],"type":"SCALAR"},{"bufferView":9,"componentType":5126,"count":5,"max":[0,0.22273969650268555,0,0.9748779535293579],"min":[0,-0.9748779535293579,0,-0.9748779535293579],"type":"VEC4"}],"materials":[{"pbrMetallicRoughness":{"metallicFactor":0,"roughnessFactor":1,"baseColorTexture":{"index":0}},"alphaMode":"MASK","alphaCutoff":0.05,"doubleSided":true},{"pbrMetallicRoughness":{"metallicFactor":0,"roughnessFactor":1,"baseColorTexture":{"index":1}},"alphaMode":"MASK","alphaCutoff":0.05,"doubleSided":true}],"textures":[{"sampler":0,"source":0,"name":"texture"},{"sampler":1,"source":1,"name":"texture"}],"samplers":[{"magFilter":9728,"minFilter":9728,"wrapS":33071,"wrapT":33071},{"magFilter":9728,"minFilter":9728,"wrapS":33071,"wrapT":33071}],"images":[{"mimeType":"image/png","uri":"data:image/png;base64,"},{"mimeType":"image/png","uri":"data:image/png;base64,"}],"meshes":[{"primitives":[{"mode":4,"attributes":{"POSITION":0,"NORMAL":1,"TEXCOORD_0":2},"indices":3,"material":0}]},{"primitives":[{"mode":4,"attributes":{"POSITION":4,"NORMAL":5,"TEXCOORD_0":6},"indices":7,"material":1}]}],"animations":[{"name":"octahedrom.rotate","samplers":[{"input":8,"output":9,"interpolation":"LINEAR"}],"channels":[{"sampler":0,"target":{"node":2,"path":"rotation"}}]}]}